# 3ds Max Wavefront OBJ Exporter v0.97b - (c)2007 guruware
# File Created: 06.03.2021 16:14:56

mtllib part 2.mtl

#
# object Object001
#

v  -45.2239 11.8110 -2.0106
v  -40.0940 11.8110 2.4585
v  -31.9472 11.8110 1.3706
v  -31.9472 11.8110 -3.0985
v  -34.3644 11.8110 5.9150
v  -31.9472 11.8110 4.8270
v  -34.0980 11.8110 7.3695
v  -31.9472 11.8110 6.2816
v  -39.7457 11.8110 -6.8869
v  -31.9472 11.8110 -6.8869
v  -35.1815 11.8110 14.0644
v  -31.9472 11.8110 12.9765
v  -27.4068 11.8110 1.3706
v  -27.4068 11.8110 -3.0985
v  -27.4068 11.8110 4.8270
v  -27.4068 11.8110 6.2816
v  -27.4068 11.8110 -6.8869
v  -27.4068 11.8110 12.9765
v  -20.6259 11.8110 1.4989
v  -20.6259 11.8110 -2.6962
v  -20.6259 11.8110 4.7434
v  -20.6259 11.8110 6.1089
v  -20.6259 11.8110 -6.2523
v  -20.6259 11.8110 13.1463
v  -7.8196 11.8110 1.6437
v  -7.8196 11.8110 -2.1348
v  -7.8196 11.8110 4.5660
v  -7.8196 11.8110 5.7958
v  -7.8196 11.8110 -5.3377
v  -7.8196 11.8110 13.4328
v  7.8380 11.8110 1.6437
v  7.8380 11.8110 -1.6917
v  7.8380 11.8110 4.5660
v  7.8380 11.8110 5.7958
v  7.8380 11.8110 -4.8946
v  7.8380 11.8110 13.4328
v  18.8215 11.8110 1.6437
v  18.8215 11.8110 -1.2523
v  18.8215 11.8110 4.5660
v  18.8215 11.8110 5.7958
v  18.8215 11.8110 -4.4553
v  18.8215 11.8110 12.3475
v  29.6645 11.8110 1.6227
v  29.6645 11.8110 -0.7522
v  29.6645 11.8110 4.6905
v  29.6645 11.8110 5.9816
v  29.6645 11.8110 -3.0366
v  29.6645 11.8110 11.9787
v  45.6544 11.8110 1.7833
v  45.6544 11.8110 -0.3250
v  45.6544 11.8110 4.9903
v  45.6544 11.8110 6.3399
v  45.6544 11.8110 -1.8557
v  45.6544 11.8110 11.6799
v  -35.1815 0.0000 20.9944
v  -31.9472 0.0000 19.2190
v  -27.4068 0.0000 19.2190
v  -20.6259 0.0000 20.5281
v  -7.8196 0.0000 23.0343
v  7.8380 0.0000 23.0343
v  18.8215 0.0000 20.9397
v  29.6645 0.0000 19.3199
v  45.6544 0.0000 17.6858
v  45.6544 0.0000 -6.1201
v  29.6645 0.0000 -8.2864
v  18.8215 0.0000 -11.4917
v  7.8380 0.0000 -12.3397
v  -7.8196 0.0000 -13.1950
v  -20.6259 0.0000 -13.1950
v  -27.4068 0.0000 -13.1950
v  -31.9472 0.0000 -13.1950
v  -39.7457 0.0000 -13.1950
v  -45.2239 -11.8110 -2.0106
v  -31.9472 -11.8110 -3.0985
v  -31.9472 -11.8110 1.3706
v  -40.0940 -11.8110 2.4585
v  -31.9472 -11.8110 4.8270
v  -34.3644 -11.8110 5.9150
v  -31.9472 -11.8110 6.2816
v  -34.0980 -11.8110 7.3695
v  -39.7457 -11.8110 -6.8869
v  -31.9472 -11.8110 -6.8869
v  -31.9472 -11.8110 12.9765
v  -35.1815 -11.8110 14.0644
v  -27.4068 -11.8110 -3.0985
v  -27.4068 -11.8110 1.3706
v  -27.4068 -11.8110 4.8270
v  -27.4068 -11.8110 6.2816
v  -27.4068 -11.8110 -6.8869
v  -27.4068 -11.8110 12.9765
v  -20.6259 -11.8110 -2.6962
v  -20.6259 -11.8110 1.4989
v  -20.6259 -11.8110 4.7434
v  -20.6259 -11.8110 6.1089
v  -20.6259 -11.8110 -6.2523
v  -20.6259 -11.8110 13.1463
v  -7.8196 -11.8110 -2.1348
v  -7.8196 -11.8110 1.6437
v  -7.8196 -11.8110 4.5660
v  -7.8196 -11.8110 5.7958
v  -7.8196 -11.8110 -5.3377
v  -7.8196 -11.8110 13.4328
v  7.8380 -11.8110 -1.6917
v  7.8380 -11.8110 1.6437
v  7.8380 -11.8110 4.5660
v  7.8380 -11.8110 5.7958
v  7.8380 -11.8110 -4.8946
v  7.8380 -11.8110 13.4328
v  18.8215 -11.8110 -1.2523
v  18.8215 -11.8110 1.6437
v  18.8215 -11.8110 4.5660
v  18.8215 -11.8110 5.7958
v  18.8215 -11.8110 -4.4553
v  18.8215 -11.8110 12.3475
v  29.6645 -11.8110 -0.7522
v  29.6645 -11.8110 1.6227
v  29.6645 -11.8110 4.6905
v  29.6645 -11.8110 5.9816
v  29.6645 -11.8110 -3.0366
v  29.6645 -11.8110 11.9787
v  45.6544 -11.8110 -0.3250
v  45.6544 -11.8110 1.7833
v  45.6544 -11.8110 4.9903
v  45.6544 -11.8110 6.3399
v  45.6544 -11.8110 -1.8557
v  45.6544 -11.8110 11.6799
# 126 vertices

vn 0.0000 1.0000 -0.0000
vn 0.0000 0.9156 -0.4021
vn 0.0000 0.8576 -0.5142
vn 0.1969 0.7864 0.5855
vn 0.0736 0.8789 0.4712
vn 0.0249 0.8508 -0.5249
vn -0.0064 0.8583 0.5130
vn 0.0405 0.8691 -0.4930
vn -0.0115 0.8744 0.4850
vn 0.0231 0.8840 -0.4669
vn -0.0049 0.9018 0.4321
vn 0.0166 0.8747 -0.4843
vn 0.0221 0.8976 0.4402
vn 0.0436 0.8629 -0.5035
vn 0.0292 0.8947 0.4458
vn 0.0544 0.8425 -0.5360
vn 0.0127 0.8750 0.4839
vn 0.0410 0.8305 -0.5555
vn 0.0097 0.8552 0.5183
vn 0.4812 0.0000 0.8766
vn 0.2682 0.0000 0.9634
vn -0.0980 0.0000 0.9952
vn -0.1909 0.0000 0.9816
vn -0.0930 0.0000 0.9957
vn 0.0907 -0.0000 0.9959
vn 0.1688 0.0000 0.9856
vn 0.1257 0.0000 0.9921
vn 0.1017 0.0000 0.9948
vn 0.1342 0.0000 -0.9909
vn 0.2136 0.0000 -0.9769
vn 0.1754 0.0000 -0.9845
vn 0.0655 0.0000 -0.9979
vn 0.0270 -0.0000 -0.9996
vn -0.0000 0.0000 -1.0000
vn 0.0000 0.0000 -1.0000
vn 0.0000 -1.0000 -0.0000
vn 0.0000 -0.9156 -0.4021
vn 0.0000 -0.8576 -0.5142
vn 0.0736 -0.8789 0.4712
vn 0.1969 -0.7864 0.5855
vn 0.0249 -0.8508 -0.5249
vn -0.0064 -0.8583 0.5130
vn 0.0405 -0.8691 -0.4930
vn -0.0115 -0.8744 0.4850
vn 0.0231 -0.8840 -0.4669
vn -0.0049 -0.9018 0.4321
vn 0.0166 -0.8747 -0.4843
vn 0.0221 -0.8976 0.4402
vn 0.0436 -0.8629 -0.5035
vn 0.0292 -0.8947 0.4458
vn 0.0544 -0.8425 -0.5360
vn 0.0127 -0.8750 0.4839
vn 0.0410 -0.8305 -0.5555
vn 0.0097 -0.8552 0.5183
# 54 vertex normals

vt 1.0000 0.5620 0.0000
vt 1.0000 0.0000 0.0000
vt 1.0000 1.0000 0.0000
# 3 texture coords

o Object001
g Object001
usemtl Material__28
s off
f 1/1/1 2/2/1 3/2/1 4/1/1 
f 2/2/1 5/2/1 6/2/1 3/2/1 
f 5/2/1 7/2/1 8/2/1 6/2/1 
f 9/3/2 1/1/1 4/1/1 10/3/3 
f 7/2/1 11/2/4 12/2/5 8/2/1 
f 4/1/1 3/2/1 13/2/1 14/1/1 
f 3/2/1 6/2/1 15/2/1 13/2/1 
f 6/2/1 8/2/1 16/2/1 15/2/1 
f 10/3/3 4/1/1 14/1/1 17/3/6 
f 8/2/1 12/2/5 18/2/7 16/2/1 
f 14/1/1 13/2/1 19/2/1 20/1/1 
f 13/2/1 15/2/1 21/2/1 19/2/1 
f 15/2/1 16/2/1 22/2/1 21/2/1 
f 17/3/6 14/1/1 20/1/1 23/3/8 
f 16/2/1 18/2/7 24/2/9 22/2/1 
f 20/1/1 19/2/1 25/2/1 26/1/1 
f 19/2/1 21/2/1 27/2/1 25/2/1 
f 21/2/1 22/2/1 28/2/1 27/2/1 
f 23/3/8 20/1/1 26/1/1 29/3/10 
f 22/2/1 24/2/9 30/2/11 28/2/1 
f 26/1/1 25/2/1 31/2/1 32/1/1 
f 25/2/1 27/2/1 33/2/1 31/2/1 
f 27/2/1 28/2/1 34/2/1 33/2/1 
f 29/3/10 26/1/1 32/1/1 35/3/12 
f 28/2/1 30/2/11 36/2/13 34/2/1 
f 32/1/1 31/2/1 37/2/1 38/1/1 
f 31/2/1 33/2/1 39/2/1 37/2/1 
f 33/2/1 34/2/1 40/2/1 39/2/1 
f 35/3/12 32/1/1 38/1/1 41/3/14 
f 34/2/1 36/2/13 42/2/15 40/2/1 
f 38/1/1 37/2/1 43/2/1 44/1/1 
f 37/2/1 39/2/1 45/2/1 43/2/1 
f 39/2/1 40/2/1 46/2/1 45/2/1 
f 41/3/14 38/1/1 44/1/1 47/3/16 
f 40/2/1 42/2/15 48/2/17 46/2/1 
f 44/1/1 43/2/1 49/2/1 50/1/1 
f 43/2/1 45/2/1 51/2/1 49/2/1 
f 45/2/1 46/2/1 52/2/1 51/2/1 
f 47/3/16 44/1/1 50/1/1 53/3/18 
f 46/2/1 48/2/17 54/2/19 52/2/1 
f 55/2/20 56/2/21 12/2/5 11/2/4 
f 56/2/21 57/2/22 18/2/7 12/2/5 
f 57/2/22 58/2/23 24/2/9 18/2/7 
f 58/2/23 59/2/24 30/2/11 24/2/9 
f 59/2/24 60/2/25 36/2/13 30/2/11 
f 60/2/25 61/2/26 42/2/15 36/2/13 
f 61/2/26 62/2/27 48/2/17 42/2/15 
f 62/2/27 63/2/28 54/2/19 48/2/17 
f 64/3/29 65/3/30 47/3/16 53/3/18 
f 65/3/30 66/3/31 41/3/14 47/3/16 
f 66/3/31 67/3/32 35/3/12 41/3/14 
f 67/3/32 68/3/33 29/3/10 35/3/12 
f 68/3/33 69/3/34 23/3/8 29/3/10 
f 69/3/34 70/3/35 17/3/6 23/3/8 
f 70/3/35 71/3/35 10/3/3 17/3/6 
f 71/3/35 72/3/35 9/3/2 10/3/3 
f 73/1/36 74/1/36 75/2/36 76/2/36 
f 76/2/36 75/2/36 77/2/36 78/2/36 
f 78/2/36 77/2/36 79/2/36 80/2/36 
f 81/3/37 82/3/38 74/1/36 73/1/36 
f 80/2/36 79/2/36 83/2/39 84/2/40 
f 74/1/36 85/1/36 86/2/36 75/2/36 
f 75/2/36 86/2/36 87/2/36 77/2/36 
f 77/2/36 87/2/36 88/2/36 79/2/36 
f 82/3/38 89/3/41 85/1/36 74/1/36 
f 79/2/36 88/2/36 90/2/42 83/2/39 
f 85/1/36 91/1/36 92/2/36 86/2/36 
f 86/2/36 92/2/36 93/2/36 87/2/36 
f 87/2/36 93/2/36 94/2/36 88/2/36 
f 89/3/41 95/3/43 91/1/36 85/1/36 
f 88/2/36 94/2/36 96/2/44 90/2/42 
f 91/1/36 97/1/36 98/2/36 92/2/36 
f 92/2/36 98/2/36 99/2/36 93/2/36 
f 93/2/36 99/2/36 100/2/36 94/2/36 
f 95/3/43 101/3/45 97/1/36 91/1/36 
f 94/2/36 100/2/36 102/2/46 96/2/44 
f 97/1/36 103/1/36 104/2/36 98/2/36 
f 98/2/36 104/2/36 105/2/36 99/2/36 
f 99/2/36 105/2/36 106/2/36 100/2/36 
f 101/3/45 107/3/47 103/1/36 97/1/36 
f 100/2/36 106/2/36 108/2/48 102/2/46 
f 103/1/36 109/1/36 110/2/36 104/2/36 
f 104/2/36 110/2/36 111/2/36 105/2/36 
f 105/2/36 111/2/36 112/2/36 106/2/36 
f 107/3/47 113/3/49 109/1/36 103/1/36 
f 106/2/36 112/2/36 114/2/50 108/2/48 
f 109/1/36 115/1/36 116/2/36 110/2/36 
f 110/2/36 116/2/36 117/2/36 111/2/36 
f 111/2/36 117/2/36 118/2/36 112/2/36 
f 113/3/49 119/3/51 115/1/36 109/1/36 
f 112/2/36 118/2/36 120/2/52 114/2/50 
f 115/1/36 121/1/36 122/2/36 116/2/36 
f 116/2/36 122/2/36 123/2/36 117/2/36 
f 117/2/36 123/2/36 124/2/36 118/2/36 
f 119/3/51 125/3/53 121/1/36 115/1/36 
f 118/2/36 124/2/36 126/2/54 120/2/52 
f 55/2/20 84/2/40 83/2/39 56/2/21 
f 56/2/21 83/2/39 90/2/42 57/2/22 
f 57/2/22 90/2/42 96/2/44 58/2/23 
f 58/2/23 96/2/44 102/2/46 59/2/24 
f 59/2/24 102/2/46 108/2/48 60/2/25 
f 60/2/25 108/2/48 114/2/50 61/2/26 
f 61/2/26 114/2/50 120/2/52 62/2/27 
f 62/2/27 120/2/52 126/2/54 63/2/28 
f 64/3/29 125/3/53 119/3/51 65/3/30 
f 65/3/30 119/3/51 113/3/49 66/3/31 
f 66/3/31 113/3/49 107/3/47 67/3/32 
f 67/3/32 107/3/47 101/3/45 68/3/33 
f 68/3/33 101/3/45 95/3/43 69/3/34 
f 69/3/34 95/3/43 89/3/41 70/3/35 
f 70/3/35 89/3/41 82/3/38 71/3/35 
f 71/3/35 82/3/38 81/3/37 72/3/35 
# 112 polygons

