# 3ds Max Wavefront OBJ Exporter v0.97b - (c)2007 guruware
# File Created: 06.03.2021 16:16:23

mtllib part 5.mtl

#
# object Object002
#

v  -43.8194 4.4614 -0.7724
v  -43.8194 4.4614 0.3371
v  72.1276 1.2609 0.6147
v  71.4036 1.2609 0.0386
v  -43.8194 4.4614 1.1609
v  72.1276 1.2609 1.0425
v  -43.8194 4.4614 1.8711
v  71.4036 1.2609 1.4113
v  -43.8194 4.4614 -1.5779
v  69.8790 1.2609 -0.3797
v  -43.8194 4.4614 2.9414
v  69.8790 1.2609 1.9671
v  -43.8194 0.0000 6.4214
v  70.7520 0.0000 3.2293
v  72.2765 0.0000 2.1788
v  73.0006 0.0000 1.4816
v  73.0006 0.0000 0.6730
v  72.2765 0.0000 -0.4160
v  70.7520 0.0000 -1.2066
v  -43.8194 0.0000 -4.3259
v  -43.8194 -4.4614 -0.7724
v  71.4036 -1.2609 0.0386
v  72.1276 -1.2609 0.6147
v  -43.8194 -4.4614 0.3371
v  72.1276 -1.2609 1.0425
v  -43.8194 -4.4614 1.1609
v  71.4036 -1.2609 1.4113
v  -43.8194 -4.4614 1.8711
v  -43.8194 -4.4614 -1.5779
v  69.8790 -1.2609 -0.3797
v  69.8790 -1.2609 1.9671
v  -43.8194 -4.4614 2.9414
# 32 vertices

vn 0.0278 0.9996 -0.0000
vn 0.0276 0.9996 -0.0000
vn 0.5174 0.7964 -0.3131
vn 0.2284 0.8334 -0.5033
vn 0.4684 0.8307 0.3009
vn 0.1825 0.8849 0.4285
vn 0.0297 0.8733 -0.4862
vn 0.0676 0.8500 -0.5224
vn 0.0290 0.8988 0.4374
vn 0.0747 0.9032 0.4226
vn 0.0279 0.0000 0.9996
vn 0.3421 0.0000 0.9397
vn 0.6368 -0.0000 0.7710
vn 0.9171 0.0000 0.3988
vn 0.9662 0.0000 -0.2580
vn 0.6902 -0.0000 -0.7236
vn 0.2956 0.0000 -0.9553
vn 0.0272 0.0000 -0.9996
vn 0.0278 -0.9996 -0.0000
vn 0.2284 -0.8334 -0.5033
vn 0.5174 -0.7964 -0.3131
vn 0.0276 -0.9996 -0.0000
vn 0.4684 -0.8307 0.3009
vn 0.1825 -0.8849 0.4285
vn 0.0297 -0.8733 -0.4862
vn 0.0676 -0.8500 -0.5224
vn 0.0747 -0.9032 0.4226
vn 0.0290 -0.8988 0.4374
# 28 vertex normals

vt 1.0000 0.5620 0.0000
vt 1.0000 0.0000 0.0000
vt 1.0000 1.0000 0.0000
# 3 texture coords

o Object002
g Object002
usemtl Material__28
s off
f 1/1/1 2/2/2 3/2/3 4/1/4 
f 2/2/2 5/2/2 6/2/5 3/2/3 
f 5/2/2 7/2/1 8/2/6 6/2/5 
f 9/3/7 1/1/1 4/1/4 10/3/8 
f 7/2/1 11/2/9 12/2/10 8/2/6 
f 13/2/11 14/2/12 12/2/10 11/2/9 
f 14/2/12 15/2/13 8/2/6 12/2/10 
f 15/2/13 16/2/14 6/2/5 8/2/6 
f 16/2/14 17/2/15 3/2/3 6/2/5 
f 17/2/15 18/1/16 4/1/4 3/2/3 
f 18/1/16 19/3/17 10/3/8 4/1/4 
f 19/3/17 20/3/18 9/3/7 10/3/8 
f 21/1/19 22/1/20 23/2/21 24/2/22 
f 24/2/22 23/2/21 25/2/23 26/2/22 
f 26/2/22 25/2/23 27/2/24 28/2/19 
f 29/3/25 30/3/26 22/1/20 21/1/19 
f 28/2/19 27/2/24 31/2/27 32/2/28 
f 13/2/11 32/2/28 31/2/27 14/2/12 
f 14/2/12 31/2/27 27/2/24 15/2/13 
f 15/2/13 27/2/24 25/2/23 16/2/14 
f 16/2/14 25/2/23 23/2/21 17/2/15 
f 17/2/15 23/2/21 22/1/20 18/1/16 
f 18/1/16 22/1/20 30/3/26 19/3/17 
f 19/3/17 30/3/26 29/3/25 20/3/18 
# 24 polygons

