# 3ds Max Wavefront OBJ Exporter v0.97b - (c)2007 guruware
# File Created: 03.03.2021 13:45:08

mtllib pipe.mtl

#
# object Cylinder001
#

v  7.8740 0.0000 -0.0000
v  7.3992 0.0000 -2.6931
v  7.3992 31.4961 -2.6931
v  7.8740 31.4961 -0.0000
v  6.0318 0.0000 -5.0613
v  6.0318 31.4961 -5.0613
v  3.9370 0.0000 -6.8191
v  3.9370 31.4961 -6.8191
v  1.3673 0.0000 -7.7544
v  1.3673 31.4961 -7.7544
v  -1.3673 0.0000 -7.7544
v  -1.3673 31.4961 -7.7544
v  -3.9370 0.0000 -6.8191
v  -3.9370 31.4961 -6.8191
v  -6.0318 0.0000 -5.0613
v  -6.0318 31.4961 -5.0613
v  -7.3992 0.0000 -2.6931
v  -7.3992 31.4961 -2.6931
v  -7.8740 0.0000 -0.0000
v  -7.8740 31.4961 -0.0000
v  -7.3992 0.0000 2.6931
v  -7.3992 31.4961 2.6931
v  -6.0318 0.0000 5.0613
v  -6.0318 31.4961 5.0613
v  -3.9370 0.0000 6.8191
v  -3.9370 31.4961 6.8191
v  -1.3673 0.0000 7.7544
v  -1.3673 31.4961 7.7544
v  1.3673 0.0000 7.7544
v  1.3673 31.4961 7.7544
v  3.9370 0.0000 6.8191
v  3.9370 31.4961 6.8191
v  6.0318 0.0000 5.0613
v  6.0318 31.4961 5.0613
v  7.3992 0.0000 2.6931
v  7.3992 31.4961 2.6931
v  6.8586 -0.0000 -0.0000
v  6.4450 -0.0000 -2.3458
v  6.4450 -0.0000 2.3458
v  5.2540 -0.0000 4.4086
v  3.4293 -0.0000 5.9397
v  1.1910 -0.0000 6.7544
v  -1.1910 -0.0000 6.7544
v  -3.4293 -0.0000 5.9397
v  -5.2540 -0.0000 4.4086
v  -6.4450 -0.0000 2.3458
v  -6.8586 -0.0000 -0.0000
v  -6.4450 -0.0000 -2.3458
v  -5.2540 -0.0000 -4.4086
v  -3.4293 -0.0000 -5.9397
v  -1.1910 -0.0000 -6.7544
v  1.1910 -0.0000 -6.7544
v  3.4293 -0.0000 -5.9397
v  5.2540 -0.0000 -4.4086
v  6.4450 31.4961 -2.3458
v  6.8586 31.4961 -0.0000
v  5.2540 31.4961 -4.4086
v  3.4293 31.4961 -5.9397
v  1.1910 31.4961 -6.7544
v  -1.1910 31.4961 -6.7544
v  -3.4293 31.4961 -5.9397
v  -5.2540 31.4961 -4.4086
v  -6.4450 31.4961 -2.3458
v  -6.8586 31.4961 -0.0000
v  -6.4450 31.4961 2.3458
v  -5.2540 31.4961 4.4086
v  -3.4293 31.4961 5.9397
v  -1.1910 31.4961 6.7544
v  1.1910 31.4961 6.7544
v  3.4293 31.4961 5.9397
v  5.2540 31.4961 4.4086
v  6.4450 31.4961 2.3458
# 72 vertices

vn 0.7423 -0.6701 -0.0000
vn 0.6976 -0.6700 -0.2539
vn 0.6976 0.6700 -0.2539
vn 0.7423 0.6701 -0.0000
vn 0.5687 -0.6700 -0.4772
vn 0.5687 0.6700 -0.4772
vn 0.3712 -0.6701 -0.6428
vn 0.3712 0.6701 -0.6428
vn 0.1289 -0.6701 -0.7310
vn 0.1289 0.6701 -0.7310
vn -0.1289 -0.6700 -0.7311
vn -0.1289 0.6700 -0.7311
vn -0.3712 -0.6700 -0.6429
vn -0.3712 0.6700 -0.6429
vn -0.5687 -0.6700 -0.4772
vn -0.5687 0.6700 -0.4772
vn -0.6975 -0.6701 -0.2539
vn -0.6975 0.6701 -0.2539
vn -0.7423 -0.6701 0.0000
vn -0.7423 0.6701 0.0000
vn -0.6976 -0.6700 0.2539
vn -0.6976 0.6700 0.2539
vn -0.5687 -0.6700 0.4772
vn -0.5687 0.6700 0.4772
vn -0.3712 -0.6700 0.6429
vn -0.3712 0.6700 0.6429
vn -0.1289 -0.6700 0.7311
vn -0.1289 0.6700 0.7311
vn 0.1289 -0.6700 0.7311
vn 0.1289 0.6700 0.7311
vn 0.3712 -0.6700 0.6429
vn 0.3712 0.6700 0.6429
vn 0.5687 -0.6700 0.4772
vn 0.5687 0.6700 0.4772
vn 0.6975 -0.6701 0.2539
vn 0.6975 0.6701 0.2539
vn -0.6632 -0.7484 0.0000
vn -0.6233 -0.7484 0.2269
vn -0.6232 -0.7484 -0.2269
vn -0.5081 -0.7484 -0.4264
vn -0.3316 -0.7484 -0.5744
vn -0.1152 -0.7484 -0.6532
vn 0.1152 -0.7484 -0.6532
vn 0.3316 -0.7484 -0.5744
vn 0.5081 -0.7484 -0.4264
vn 0.6233 -0.7484 -0.2269
vn 0.6632 -0.7484 -0.0000
vn 0.6232 -0.7484 0.2269
vn 0.5081 -0.7484 0.4264
vn 0.3316 -0.7484 0.5744
vn 0.1152 -0.7484 0.6532
vn -0.1152 -0.7484 0.6532
vn -0.3316 -0.7484 0.5744
vn -0.5081 -0.7484 0.4264
vn -0.6233 0.7484 0.2269
vn -0.6633 0.7484 0.0000
vn -0.5081 0.7484 0.4264
vn -0.3316 0.7484 0.5744
vn -0.1152 0.7484 0.6532
vn 0.1152 0.7484 0.6532
vn 0.3316 0.7484 0.5744
vn 0.5081 0.7484 0.4264
vn 0.6232 0.7484 0.2269
vn 0.6633 0.7484 -0.0000
vn 0.6233 0.7484 -0.2269
vn 0.5081 0.7484 -0.4264
vn 0.3316 0.7484 -0.5744
vn 0.1152 0.7484 -0.6532
vn -0.1152 0.7484 -0.6532
vn -0.3316 0.7484 -0.5744
vn -0.5081 0.7484 -0.4264
vn -0.6232 0.7484 -0.2269
# 72 vertex normals

vt 0.7500 0.0000 1.0000
vt 0.8056 0.0000 1.0000
vt 0.8056 1.0000 1.0000
vt 0.7500 1.0000 1.0000
vt 0.8611 0.0000 1.0000
vt 0.8611 1.0000 1.0000
vt 0.9167 0.0000 1.0000
vt 0.9167 1.0000 1.0000
vt 0.9722 0.0000 1.0000
vt 0.9722 1.0000 1.0000
vt -0.0278 0.0000 1.0000
vt 0.0278 0.0000 1.0000
vt 0.0278 1.0000 1.0000
vt -0.0278 1.0000 1.0000
vt 0.0833 0.0000 1.0000
vt 0.0833 1.0000 1.0000
vt 0.1389 0.0000 1.0000
vt 0.1389 1.0000 1.0000
vt 0.1944 0.0000 1.0000
vt 0.1944 1.0000 1.0000
vt 0.2500 0.0000 1.0000
vt 0.2500 1.0000 1.0000
vt 0.3056 0.0000 1.0000
vt 0.3056 1.0000 1.0000
vt 0.3611 0.0000 1.0000
vt 0.3611 1.0000 1.0000
vt 0.4167 0.0000 1.0000
vt 0.4167 1.0000 1.0000
vt 0.4722 0.0000 1.0000
vt 0.4722 1.0000 1.0000
vt 0.5278 0.0000 1.0000
vt 0.5278 1.0000 1.0000
vt 0.5833 0.0000 1.0000
vt 0.5833 1.0000 1.0000
vt 0.6389 0.0000 1.0000
vt 0.6389 1.0000 1.0000
vt 0.6944 0.0000 1.0000
vt 0.6944 1.0000 1.0000
vt 0.3400 0.0000 -0.0000
vt 0.1953 0.0000 -0.3473
vt 0.0874 0.0000 -0.6527
vt 0.0292 0.0000 -0.8794
vt 0.0278 0.0000 -1.0000
vt 0.0833 0.0000 -1.0000
vt 0.1891 0.0000 -0.8794
vt 0.3325 0.0000 -0.6527
vt 0.4960 0.0000 -0.3473
vt 0.6600 0.0000 0.0000
vt 0.8047 0.0000 0.3473
vt 0.9126 0.0000 0.6527
vt 0.9708 0.0000 0.8794
vt 0.9708 1.0000 0.8794
vt 0.9126 1.0000 0.6527
vt 0.8047 1.0000 0.3473
vt 0.6600 1.0000 0.0000
vt 0.4960 1.0000 -0.3473
vt 0.3325 1.0000 -0.6527
vt 0.1891 1.0000 -0.8794
vt 0.0833 1.0000 -1.0000
vt 0.0278 1.0000 -1.0000
vt 0.0292 1.0000 -0.8794
vt 0.0874 1.0000 -0.6527
vt 0.1953 1.0000 -0.3473
# 63 texture coords

o Cylinder001
g Cylinder001
usemtl wire_088177027
s 8
f 1/1/1 2/2/2 3/3/3 4/4/4 
f 2/2/2 5/5/5 6/6/6 3/3/3 
f 5/5/5 7/7/7 8/8/8 6/6/6 
f 7/7/7 9/9/9 10/10/10 8/8/8 
f 9/11/9 11/12/11 12/13/12 10/14/10 
f 11/12/11 13/15/13 14/16/14 12/13/12 
f 13/15/13 15/17/15 16/18/16 14/16/14 
f 15/17/15 17/19/17 18/20/18 16/18/16 
f 17/19/17 19/21/19 20/22/20 18/20/18 
f 19/21/19 21/23/21 22/24/22 20/22/20 
f 21/23/21 23/25/23 24/26/24 22/24/22 
f 23/25/23 25/27/25 26/28/26 24/26/24 
f 25/27/25 27/29/27 28/30/28 26/28/26 
f 27/29/27 29/31/29 30/32/30 28/30/28 
f 29/31/29 31/33/31 32/34/32 30/32/30 
f 31/33/31 33/35/33 34/36/34 32/34/32 
f 33/35/33 35/37/35 36/38/36 34/36/34 
f 35/37/35 1/1/1 4/4/4 36/38/36 
s off
f 2/2/2 1/1/1 37/1/37 38/2/38 
f 1/1/1 35/39/35 39/39/39 37/1/37 
f 35/39/35 33/40/33 40/40/40 39/39/39 
f 33/40/33 31/41/31 41/41/41 40/40/40 
f 31/41/31 29/42/29 42/42/42 41/41/41 
f 29/42/29 27/43/27 43/43/43 42/42/42 
f 27/43/27 25/44/25 44/44/44 43/43/43 
f 25/44/25 23/45/23 45/45/45 44/44/44 
f 23/45/23 21/46/21 46/46/46 45/45/45 
f 21/46/21 19/47/19 47/47/47 46/46/46 
f 19/47/19 17/48/17 48/48/48 47/47/47 
f 17/48/17 15/49/15 49/49/49 48/48/48 
f 15/49/15 13/50/13 50/50/50 49/49/49 
f 13/50/13 11/51/11 51/51/51 50/50/50 
f 11/51/11 9/9/9 52/9/52 51/51/51 
f 9/9/9 7/7/7 53/7/53 52/9/52 
f 7/7/7 5/5/5 54/5/54 53/7/53 
f 5/5/5 2/2/2 38/2/38 54/5/54 
f 4/4/4 3/3/3 55/3/55 56/4/56 
f 3/3/3 6/6/6 57/6/57 55/3/55 
f 6/6/6 8/8/8 58/8/58 57/6/57 
f 8/8/8 10/10/10 59/10/59 58/8/58 
f 10/10/10 12/52/12 60/52/60 59/10/59 
f 12/52/12 14/53/14 61/53/61 60/52/60 
f 14/53/14 16/54/16 62/54/62 61/53/61 
f 16/54/16 18/55/18 63/55/63 62/54/62 
f 18/55/18 20/56/20 64/56/64 63/55/63 
f 20/56/20 22/57/22 65/57/65 64/56/64 
f 22/57/22 24/58/24 66/58/66 65/57/65 
f 24/58/24 26/59/26 67/59/67 66/58/66 
f 26/59/26 28/60/28 68/60/68 67/59/67 
f 28/60/28 30/61/30 69/61/69 68/60/68 
f 30/61/30 32/62/32 70/62/70 69/61/69 
f 32/62/32 34/63/34 71/63/71 70/62/70 
f 34/63/34 36/38/36 72/38/72 71/63/71 
f 36/38/36 4/4/4 56/4/56 72/38/72 
s 8
f 56/4/56 55/3/55 38/3/38 37/4/37 
f 55/3/55 57/6/57 54/6/54 38/3/38 
f 57/6/57 58/8/58 53/8/53 54/6/54 
f 58/8/58 59/10/59 52/10/52 53/8/53 
f 59/10/59 60/52/60 51/52/51 52/10/52 
f 60/52/60 61/53/61 50/53/50 51/52/51 
f 61/53/61 62/54/62 49/54/49 50/53/50 
f 62/54/62 63/55/63 48/55/48 49/54/49 
f 63/55/63 64/56/64 47/56/47 48/55/48 
f 64/56/64 65/57/65 46/57/46 47/56/47 
f 65/57/65 66/58/66 45/58/45 46/57/46 
f 66/58/66 67/59/67 44/59/44 45/58/45 
f 67/59/67 68/60/68 43/60/43 44/59/44 
f 68/60/68 69/61/69 42/61/42 43/60/43 
f 69/61/69 70/62/70 41/62/41 42/61/42 
f 70/62/70 71/63/71 40/63/40 41/62/41 
f 71/63/71 72/38/72 39/38/39 40/63/40 
f 72/38/72 56/4/56 37/4/37 39/38/39 
# 72 polygons

